<svg xmlns="http://www.w3.org/2000/svg" width="1200" height="630" viewBox="0 0 1200 630" role="img" aria-label="Karmakode custom website builder">
  <defs>
    <radialGradient id="glow" cx="50%" cy="18%" r="70%">
      <stop offset="0%" stop-color="#d91518" stop-opacity="0.55"/>
      <stop offset="48%" stop-color="#180606" stop-opacity="0.9"/>
      <stop offset="100%" stop-color="#030303"/>
    </radialGradient>
  </defs>
  <rect width="1200" height="630" fill="url(#glow)"/>
  <g opacity="0.14" stroke="#f3f0ea">
    <path d="M0 110h1200M0 220h1200M0 330h1200M0 440h1200M0 550h1200"/>
    <path d="M120 0v630M240 0v630M360 0v630M480 0v630M600 0v630M720 0v630M840 0v630M960 0v630M1080 0v630"/>
  </g>
  <text x="72" y="92" fill="#ff5a78" font-family="Arial, sans-serif" font-size="28" font-weight="700" letter-spacing="6">KARMAKODE</text>
  <text x="70" y="280" fill="#f3f0ea" font-family="Arial Black, Arial, sans-serif" font-size="92" font-weight="900">YOUR IDEA NEEDS</text>
  <text x="70" y="382" fill="#f3f0ea" font-family="Arial Black, Arial, sans-serif" font-size="92" font-weight="900">A PLACE TO LAND.</text>
  <text x="76" y="468" fill="#ded8cf" font-family="Arial, sans-serif" font-size="34">Custom websites, landing pages, portfolios, and launch pages.</text>
  <rect x="76" y="520" width="292" height="62" rx="31" fill="#f3f0ea"/>
  <text x="113" y="561" fill="#030303" font-family="Arial, sans-serif" font-size="24" font-weight="700">Free demo first</text>
</svg>
